<?xml version="1.0" encoding="UTF-8"?>
<svg id="Layer_1" xmlns="http://www.w3.org/2000/svg" xmlns:xlink="http://www.w3.org/1999/xlink" viewBox="0 0 4167.97 2981.01">
  <defs>
    <style>
      .cls-1 {
        fill: none;
      }

      .cls-2 {
        fill: #3edc81;
      }

      .cls-3 {
        fill: #909090;
      }

      .cls-4 {
        fill: #eb984e;
      }

      .cls-5 {
        fill: #2ab5f6;
      }

      .cls-6 {
        fill: #f75c4c;
      }

      .cls-7, .cls-8, .cls-9, .cls-10 {
        isolation: isolate;
      }

      .cls-7, .cls-11 {
        opacity: .2;
      }

      .cls-7, .cls-12 {
        fill: #ffca28;
      }

      .cls-13 {
        fill: #8bc34a;
      }

      .cls-14 {
        fill: #606060;
      }

      .cls-15 {
        fill: #dce5ee;
      }

      .cls-16 {
        fill: #4fc3f7;
      }

      .cls-17 {
        fill: #ce93d8;
      }

      .cls-18 {
        clip-path: url(#clippath-1);
      }

      .cls-19 {
        fill: #ffa726;
      }

      .cls-20 {
        fill: #fff;
      }

      .cls-21 {
        fill: #e8edf3;
      }

      .cls-8 {
        fill: url(#linear-gradient-3);
      }

      .cls-8, .cls-9, .cls-22, .cls-10 {
        opacity: .5;
      }

      .cls-9 {
        fill: url(#linear-gradient-2);
      }

      .cls-23 {
        opacity: .7;
      }

      .cls-24 {
        opacity: .4;
      }

      .cls-25 {
        opacity: .6;
      }

      .cls-26 {
        opacity: .3;
      }

      .cls-27 {
        fill: #29b6f6;
      }

      .cls-28 {
        fill: #ffcc80;
      }

      .cls-10 {
        fill: url(#linear-gradient);
      }

      .cls-29 {
        fill: #6d4c41;
      }

      .cls-30 {
        clip-path: url(#clippath);
      }
    </style>
    <clipPath id="clippath">
      <path class="cls-1" d="M1371.1,2213.54c13.74-51.59,5.03-108.45-23.28-152.09l-7.19-11.09c-20.67,1.01-60.77.41-143.04-1.24-82.07-1.64-175.05-4.17-211.22-5.18-1.33-.04-2.63-.21-3.88-.48l-5.96.17c-.38.01-.75.01-1.13,0l-5.96-.17c-1.25.27-2.55.44-3.88.48-36.16,1-129.14,3.53-211.22,5.18-82.24,1.64-122.37,2.25-143.04,1.24l-7.2,11.09c-28.31,43.64-37.02,100.5-23.28,152.1l83.19,312.45c7.61,28.58,31.27,48.55,57.53,48.55h508.84c26.27,0,49.93-19.96,57.53-48.55l83.19-312.46h0Z"/>
    </clipPath>
    <clipPath id="clippath-1">
      <path class="cls-1" d="M2818.81,1151.99h-1415.37c-13.86,0-25.14,11.06-25.14,24.65v838.27c0,13.59,11.28,24.66,25.14,24.66h1415.37c13.86,0,25.14-11.06,25.14-24.66v-838.27c0-13.59-11.28-24.65-25.14-24.65Z"/>
    </clipPath>
    <linearGradient id="linear-gradient" x1="2822.48" y1="491.49" x2="2822.48" y2="1805.17" gradientTransform="translate(-145.89 286.1) rotate(49.83) scale(1 -1)" gradientUnits="userSpaceOnUse">
      <stop offset="0" stop-color="#fff"/>
      <stop offset="1" stop-color="#fff"/>
    </linearGradient>
    <linearGradient id="linear-gradient-2" x1="2511.77" y1="613.44" x2="2511.77" y2="1839.51" gradientTransform="translate(-321.07 520.45) rotate(49.83) scale(1 -1)" gradientUnits="userSpaceOnUse">
      <stop offset="0" stop-color="#fff"/>
      <stop offset="1" stop-color="#fff"/>
    </linearGradient>
    <linearGradient id="linear-gradient-3" x1="1702.13" y1="869.21" x2="1702.13" y2="2095.29" gradientTransform="translate(-821.52 1112.79) rotate(49.83) scale(1 -1)" gradientUnits="userSpaceOnUse">
      <stop offset="0" stop-color="#fff"/>
      <stop offset="1" stop-color="#fff"/>
    </linearGradient>
  </defs>
  <g id="Layer_1-2" data-name="Layer_1">
    <g>
      <g>
        <path class="cls-5" d="M3046.86,2697.35c340.4-278.85,557.66-702.44,557.66-1176.81C3604.52,680.77,2923.75,0,2083.98,0S563.44,680.77,563.44,1520.54c0,474.37,217.26,897.96,557.66,1176.81,288.01-4.79,615.51-7.5,962.88-7.5s674.87,2.71,962.88,7.5h0Z"/>
        <g>
          <g class="cls-11">
            <path class="cls-29" d="M1294.68,2633h169.74c4.14,0,7.98-1.25,11.2-3.37,2.29.21,4.61.35,6.95.35h1376.98c42.08,0,76.32-34.24,76.32-76.32v-4.38c0-42.08-34.23-76.32-76.32-76.32h-434.9c-27.38-32-45.28-72.26-55.79-101.79h477.13c6.68,10.63,15.72,19.69,26.77,26.41,13.06,7.94,27.69,12,42.5,12,6.63,0,13.3-.82,19.87-2.47l209.88-49.52c3.13-.74,5.97-2.39,8.16-4.73,4.28-4.58,7.45-9.08,9.81-13.41,4.43-4.56,8.41-9.55,11.69-15.03,9.62-16.02,14.55-30.55,16.98-39.9,2.19-8.38-.05-17.13-6-23.41-5.94-6.27-14.55-8.97-23.04-7.26l-29.79,6.1-31.29-138.58c-2.99-13.2-10.99-24.35-22.55-31.38-11.56-7.04-25.13-9.02-38.23-5.61l-13.28,3.47v-912.69c0-71.71-58.34-130.06-130.05-130.06h-1455.63c-5.49,0-10.89.38-16.2,1.05-3.45-45.29-8.06-92.74-13.98-142.49-.82-6.86-5.04-12.85-11.24-15.92-6.2-3.07-13.53-2.8-19.47.71-4.82,2.84-105.8,63.35-204.59,193.05-52.41-197.88-124.71-315.02-127.89-320.12-3.62-5.8-9.9-9.4-16.74-9.61-6.72-.15-13.31,3.02-17.28,8.59-55.87,78.52-97.39,179.63-124.45,302.3-91.26-113.8-180.26-168.88-189.21-174.26-14.45,31.56-27.81,63.72-40.12,96.39-7.14,74.26-11.25,143.04-12.84,206.71-10.84-12.75-24-26.76-39.08-40.27-29.5,118.24-45.26,241.92-45.26,369.3,0,439.26,186.38,834.89,484.23,1112.46h247.01ZM1440.46,2371.14c.45,0,.89.03,1.34.03h531.54c-10.47,29.52-28.32,69.79-55.71,101.79h-435.05c-9.93,0-19.39,1.96-28.09,5.43-9.52-12.54-20.98-23.52-33.91-32.52l19.89-74.72h0Z"/>
          </g>
          <g class="cls-11">
            <path class="cls-29" d="M3252.9,644.57c-40.15-24.04-86.45-37.21-134.13-37.21-64.38,0-126.23,23.7-174.18,66.74l-2.2,1.98c-4.92,4.42-8.92,9.59-11.95,15.24-5.98,1.01-11.26,3.36-15.68,7.33-60.52,54.33,155.79,298.82,180.66,326.52,22.36,24.91,202.43,222.66,282.46,222.66,8.95,0,16.65-2.47,22.74-7.94,3.03-2.72,5.33-5.93,7.03-9.55,9.12-2.12,17.65-6.46,24.74-12.83,33.94-30.47,57.97-67.9,71.96-108.21l70.78,112.68c-44.71-224.52-138.81-431.23-270.57-608.28-16.97,5.17-32.77,13.92-46.22,25.99l-5.45,4.89h0Z"/>
          </g>
        </g>
        <g class="cls-26">
          <path class="cls-29" d="M4167.96,2756.26c0-36.68-933.03-66.41-2083.98-66.41S0,2719.58,0,2756.26c0,21.2,311.78,40.08,797.22,52.24,104.75,23.77,510.87,41.5,995.91,41.5,406.18,0,757.01-12.43,921.87-30.43,842.46-8.52,1452.97-33.64,1452.97-63.31h-.01Z"/>
        </g>
        <path class="cls-29" d="M3975.06,2732.42H192.9c-11.3,0-20.46-9.16-20.46-20.46s9.16-20.46,20.46-20.46h3782.15c11.3,0,20.46,9.16,20.46,20.46s-9.16,20.46-20.46,20.46h.01Z"/>
        <g>
          <g>
            <g>
              <path class="cls-2" d="M966.77,754.69s319.09,510.6,101.15,1197.51l-154.47,51.84s-105.09-467.41-105.05-547.3c.04-79.89-6.91-469.75,158.37-702.04h0Z"/>
              <path class="cls-29" d="M913.45,2024.49c-3.48,0-6.94-.89-10.04-2.63-5.04-2.84-8.65-7.69-9.92-13.34-4.31-19.18-105.58-470.56-105.55-551.79l-.02-9.51c-.73-315.13,53.84-552.12,162.17-704.39,3.96-5.57,10.36-8.83,17.29-8.59,6.83.2,13.11,3.81,16.74,9.61,3.33,5.33,82.11,132.89,134.82,347.12,48.56,197.36,82.5,508.05-31.52,867.42-1.97,6.22-6.8,11.13-12.99,13.21l-154.47,51.83c-2.12.71-4.32,1.06-6.51,1.06ZM965.31,793.88c-66.48,107.24-137.27,303.65-136.46,653.24v9.63c-.02,58.69,62.5,354.2,99.61,520.67l123.06-41.3c107.18-345.37,74.63-643.64,28.09-833.73-37.08-151.42-88.6-259.99-114.3-308.51h0Z"/>
            </g>
            <g class="cls-25">
              <path class="cls-20" d="M844.71,1503.51v-9.61c-.83-349.62,69.98-546.04,136.46-653.28,16.34,30.81,43.11,85.91,69.99,160.97-31.76-99.14-66.28-170.85-85.84-207.74-66.48,107.24-137.29,303.66-136.47,653.28v9.61c-.01,58.69,62.5,354.19,99.61,520.66l5.13-1.72c-37.27-169.91-88.9-418.84-88.88-472.18h0Z"/>
            </g>
            <g>
              <path class="cls-2" d="M600.93,1231.7s-80.86-132.04-188.75-141.31c0,0-48.65,224.04,86.11,445.12l213.07,36.96-13.36-282.4-97.08-58.38h.01Z"/>
              <path class="cls-29" d="M711.36,1592.94c-1.16,0-2.33-.1-3.5-.3l-213.07-36.96c-5.81-1.01-10.9-4.47-13.97-9.51-137.44-225.48-90.69-450.64-88.63-460.11,2.19-10.06,11.54-16.87,21.75-16.04,106.54,9.16,185.83,122.38,201.66,146.64l92.95,55.9c5.86,3.52,9.57,9.74,9.89,16.56l13.35,282.4c.29,6.2-2.25,12.2-6.9,16.31-3.77,3.33-8.59,5.12-13.54,5.12h.01ZM511.02,1516.96l178.69,31-11.63-245.98-87.7-52.74c-2.82-1.69-5.18-4.04-6.9-6.84-.92-1.49-67.35-107.85-154.36-128.58-7.51,56.73-19.47,231,81.9,403.14h0Z"/>
            </g>
            <g class="cls-25">
              <path class="cls-20" d="M458.35,1137.2c21.41,5.1,41.57,15.4,59.82,28.03-24.89-22.6-55.42-43.41-89.05-51.42-7.51,56.72-19.47,231,81.9,403.14l17.86,3.1c-89.01-165.36-77.75-328.36-70.53-382.86h0Z"/>
            </g>
            <g>
              <path class="cls-2" d="M633.42,1928.47s-363.98-19.48-479.45-488.35c0,0,451.55-211.65,662.86,469.19l-183.41,19.16h0Z"/>
              <path class="cls-29" d="M633.42,1948.93c-.37,0-.73,0-1.09-.03-3.92-.21-97.34-5.9-205.88-71.25-99.51-59.92-231.01-183.61-292.34-432.63-2.33-9.47,2.35-19.28,11.18-23.42,6.61-3.1,164.04-75.03,340.45,2.86,155.34,68.59,273.31,229.68,350.63,478.8,1.82,5.85.91,12.21-2.46,17.32-3.37,5.12-8.86,8.45-14.96,9.09l-183.41,19.16c-.7.07-1.42.11-2.12.11h0ZM178.27,1452.54c111.29,417.99,430.73,453.34,454.82,455.39l156.59-16.35c-73.45-223.41-180.98-367.81-319.86-429.42-128.89-57.18-249.56-24.47-291.56-9.62h.01Z"/>
            </g>
            <g class="cls-25">
              <path class="cls-20" d="M201.65,1487.56c41.78-14.89,161.76-47.65,290.95,9.4,73.32,32.37,137.91,87.83,193.38,165.75-60.44-96.54-132.89-163.79-216.77-200.82-129.2-57.05-249.17-24.29-290.95-9.4,27.08,101.69,66.46,180.18,109.85,240.74-34.01-55-64.34-122.6-86.47-205.67h.01Z"/>
            </g>
            <g>
              <path class="cls-2" d="M805.54,1912.52s-282.08-173.56-180.11-1024.39c0,0,521.85,308.56,343.76,1037.33l-118.54,67.36-45.11-80.3Z"/>
              <path class="cls-29" d="M850.65,2013.28c-1.84,0-3.68-.25-5.48-.75-5.25-1.46-9.69-4.94-12.36-9.69l-42.76-76.12c-38.84-27.99-281.26-237.26-184.93-1041.02.82-6.86,5.06-12.85,11.25-15.91,6.2-3.06,13.53-2.79,19.47.73,5.5,3.25,135.9,81.57,245.46,251.92,100.89,156.87,201.48,424.37,107.76,807.88-1.34,5.47-4.87,10.15-9.77,12.93l-118.54,67.36c-3.11,1.77-6.59,2.67-10.11,2.67h.01ZM641.89,924.06c-45.21,410.62,3.05,651.71,52.37,782.53,54.39,144.27,121.45,188.15,122.12,188.57,2.85,1.81,5.34,4.38,6.99,7.33l35.04,62.38,92.96-52.82c86.49-363.83-8.23-617.07-103.42-765.82-75.38-117.79-162.9-190.6-206.06-222.17h0Z"/>
            </g>
            <g class="cls-25">
              <path class="cls-20" d="M729.34,1753.36c-49.33-130.83-97.59-371.91-52.37-782.53,33,24.14,91.95,72.48,151.57,146.53-70.5-100.85-147.14-164.4-186.64-193.29-45.22,410.62,3.05,651.71,52.37,782.53,30.83,81.77,65.72,131.26,90.29,158.9-17.89-27.8-37.24-64.46-55.21-112.14h-.01Z"/>
            </g>
            <g>
              <path class="cls-2" d="M1351.18,1232.15s80.98-131.94,188.88-141.08c0,0,48.45,224.1-86.52,445.02l-213.1,36.71,13.62-282.38,97.13-58.26h-.01Z"/>
              <path class="cls-29" d="M1240.44,1593.25c-4.95,0-9.79-1.8-13.56-5.13-4.65-4.11-7.18-10.11-6.88-16.31l13.62-282.38c.33-6.83,4.05-13.04,9.91-16.56l93-55.79c15.85-24.24,95.25-137.37,201.8-146.4,10.22-.92,19.55,6.01,21.73,16.06,2.05,9.48,48.6,234.69-89.06,460.01-3.08,5.04-8.17,8.5-13.99,9.5l-213.1,36.71c-1.16.2-2.32.3-3.47.3h0ZM1273.96,1302.33l-11.86,245.97,178.73-30.79c101.53-172.02,89.73-346.3,82.27-403.04-87.17,20.65-153.77,127.24-154.48,128.39-1.72,2.79-4.09,5.14-6.9,6.83l-87.75,52.64h-.01ZM1351.18,1232.15h.06-.06Z"/>
            </g>
            <g>
              <path class="cls-2" d="M1318.05,1928.88s364-19.05,479.9-487.77c0,0-451.36-212.19-663.29,468.4l183.39,19.38h0Z"/>
              <path class="cls-29" d="M1318.05,1949.34c-.72,0-1.43-.04-2.15-.11l-183.39-19.38c-6.09-.64-11.58-3.98-14.94-9.1-3.37-5.12-4.26-11.47-2.44-17.32,77.54-249.01,195.65-409.95,351.03-478.36,176.5-77.72,333.88-5.58,340.49-2.47,8.83,4.15,13.5,13.96,11.16,23.43-61.56,248.95-193.17,372.49-292.74,432.29-108.61,65.23-202.03,70.8-205.95,71.01-.35.02-.71.03-1.07.03v-.02ZM1161.81,1891.8l156.57,16.54c11.81-.99,94.34-9.77,187.45-66.22,130.01-78.82,220.05-209.52,267.81-388.62-41.94-14.9-162.63-47.78-291.61,9.28-138.91,61.45-246.57,205.72-320.21,429.02h-.01Z"/>
            </g>
            <g>
              <path class="cls-2" d="M1145.94,1912.72s282.24-173.22,181.06-1024.17c0,0-522.14,307.94-344.71,1036.92l118.48,67.5,45.18-80.25h-.01Z"/>
              <path class="cls-29" d="M1100.76,2013.42c-3.52,0-7.02-.91-10.13-2.68l-118.48-67.5c-4.89-2.79-8.42-7.47-9.75-12.94-93.37-383.63,7.47-651,108.51-807.75,109.72-170.22,240.19-248.39,245.69-251.63,5.96-3.52,13.28-3.78,19.47-.71,6.2,3.07,10.42,9.05,11.24,15.92,95.58,803.83-147,1012.84-185.9,1040.81l-42.83,76.07c-2.67,4.75-7.12,8.23-12.37,9.68-1.79.5-3.63.74-5.46.74h0ZM1000.11,1912.08l92.91,52.93,35.09-62.33c1.68-2.99,4.1-5.51,7.01-7.33.96-.61,67.88-44.54,122.29-188.42,49.44-130.76,97.93-371.8,53.1-782.47-43.18,31.51-130.77,104.21-206.27,221.92-95.33,148.64-190.29,401.76-104.13,765.7h0Z"/>
            </g>
            <g class="cls-25">
              <path class="cls-20" d="M1310.5,924.46c-27.77,20.26-73.92,57.67-123.4,113.02-27.46,30.72-55.92,66.89-82.87,108.9-12.11,18.89-24.21,39.48-35.94,61.75-80.58,153.02-143.39,386.25-68.18,703.94l4.42,2.52c-69.34-328.5,9.83-563.41,97.02-709.79,21.46-10.22,45.22-33.71,63.47-65.32,10.39-17.99,17.54-36.19,21.5-52.93,49.78-58.17,97.46-98.34,128.16-121.44-1.3-13.37-2.68-26.9-4.18-40.66h0Z"/>
            </g>
            <g>
              <path class="cls-27" d="M1351.1,2028.92c-3.91,4.3-282.98-3.16-364.16-5.42v-.62s-3.96.11-10.98.31c-7.02-.2-10.98-.31-10.98-.31v.62c-81.18,2.26-360.25,9.73-364.16,5.42l-13.88,21.4c-31.67,48.81-41.22,110.93-25.89,168.49l83.19,312.46c10.06,37.78,41.54,63.74,77.31,63.74h508.84c35.76,0,67.25-25.96,77.31-63.74l83.19-312.46c15.33-57.56,5.78-119.68-25.89-168.49l-13.88-21.4h-.02Z"/>
              <path class="cls-29" d="M1230.38,2615.46h-508.84c-44.78,0-84.7-32.46-97.08-78.94l-83.19-312.45c-16.91-63.52-6.52-130.91,28.5-184.89l13.89-21.4c3.45-5.32,9.19-8.74,15.51-9.25,2.46-.21,4.87.05,7.17.69,19.06,1.76,156.42-.58,353.45-6.05,1.87-.54,3.85-.81,5.79-.75l10.38.3,10.38-.3c2.11-.06,4.17.2,6.16.76,196.83,5.47,334.03,7.81,353.08,6.04,2.31-.65,4.75-.89,7.18-.69,6.33.51,12.05,3.93,15.51,9.25l13.89,21.4c35.02,53.98,45.41,121.37,28.5,184.89l-83.19,312.46c-12.38,46.48-52.3,78.94-97.08,78.94h-.01ZM611.29,2050.37l-7.19,11.09c-28.31,43.64-37.02,100.49-23.28,152.09l83.19,312.46c7.61,28.58,31.27,48.54,57.53,48.54h508.84c26.26,0,49.92-19.96,57.54-48.55l83.19-312.46c13.74-51.59,5.04-108.45-23.28-152.09l-7.19-11.08c-20.67,1.01-60.78.41-143.05-1.24-78.96-1.58-166.23-3.92-211.22-5.18-1.33-.04-2.63-.2-3.88-.48l-5.95.17h-1.15l-6.04-.17c-1.22.28-2.49.45-3.79.48-45,1.25-132.27,3.59-211.22,5.18-82.25,1.65-122.36,2.26-143.04,1.24h-.01ZM615.93,2015.13h0s0,.01,0,0ZM1335.99,2015.12h0s0,.01,0,0ZM615.91,2015.1h.01-.01ZM1336.02,2015.09v.02s-.01,0,0-.02ZM615.88,2015.07l.02.02-.02-.02ZM1336.05,2015.06s0,.01-.02.02c0,0,0-.01.02-.02ZM613.54,2012.9c.82.66,1.6,1.38,2.33,2.16-.76-.83-1.55-1.55-2.33-2.16ZM1338.41,2012.87c-.79.62-1.58,1.35-2.35,2.18.73-.8,1.52-1.53,2.35-2.18Z"/>
            </g>
            <g class="cls-11">
              <path class="cls-20" d="M757.21,2150.78h40.52c19.47,0,35.28,15.81,35.28,35.28v146.76c0,19.47-15.81,35.28-35.28,35.28h-40.52c-19.47,0-35.28-15.81-35.28-35.28v-146.76c0-19.47,15.81-35.28,35.28-35.28Z"/>
            </g>
            <g class="cls-22">
              <path class="cls-20" d="M699.08,2528.97l-83.19-312.45c-13.73-51.59-5.03-108.45,23.28-152.1l7.2-11.09c20.67,1.02,60.8.41,143.04-1.24,82.08-1.64,175.05-4.17,211.22-5.18,1.33-.04,2.63-.21,3.88-.48l5.96.17c.38.01.75.01,1.13,0l5.96-.17c1.26.27,2.55.44,3.88.48,36.17,1,129.15,3.53,211.22,5.18,51.3,1.03,86.19,1.65,110.21,1.72l-2.24-3.45c-20.67,1.01-60.77.41-143.04-1.24-82.07-1.64-175.05-4.17-211.22-5.18-1.33-.04-2.63-.21-3.88-.48l-5.96.17c-.38.01-.75.01-1.13,0l-5.96-.17c-1.25.27-2.55.44-3.88.48-36.16,1-129.14,3.53-211.22,5.18-82.24,1.64-122.37,2.25-143.04,1.24l-7.2,11.09c-28.31,43.64-37.02,100.5-23.28,152.1l83.19,312.45c7.61,28.58,31.27,48.55,57.53,48.55h17.86c-18.9-6.53-34.43-23.45-40.32-45.58h0Z"/>
            </g>
            <g class="cls-30">
              <g>
                <path class="cls-29" d="M485.23,2732.92c-2.23,0-4.49-.6-6.52-1.86-5.83-3.61-7.63-11.27-4.02-17.1,40.77-65.87,68.39-94.38,95.1-121.97,26.98-27.86,52.46-54.18,91.82-117.76,39.38-63.62,52.16-99.12,65.68-136.7,13.36-37.13,27.18-75.53,67.93-141.36,40.77-65.86,68.39-94.38,95.1-121.96,26.98-27.86,52.46-54.17,91.82-117.75,39.38-63.61,52.15-99.11,65.68-136.69,13.36-37.13,27.18-75.53,67.93-141.35,40.77-65.86,68.39-94.38,95.1-121.96,26.98-27.86,52.46-54.17,91.82-117.75,3.61-5.83,11.26-7.64,17.1-4.02,5.83,3.61,7.63,11.26,4.02,17.09-40.77,65.86-68.39,94.38-95.1,121.96-26.98,27.86-52.46,54.17-91.82,117.75-39.38,63.61-52.15,99.11-65.68,136.69-13.36,37.13-27.18,75.53-67.93,141.35-40.77,65.86-68.39,94.38-95.1,121.96-26.98,27.86-52.46,54.17-91.82,117.75-39.38,63.62-52.16,99.12-65.68,136.7-13.36,37.13-27.18,75.53-67.93,141.36-40.77,65.86-68.39,94.38-95.1,121.96-26.98,27.86-52.46,54.18-91.83,117.76-2.35,3.8-6.41,5.88-10.57,5.88v.02Z"/>
                <path class="cls-29" d="M606.81,2799.47c-2.23,0-4.49-.6-6.52-1.86-5.83-3.61-7.63-11.27-4.02-17.1,40.77-65.86,68.39-94.38,95.1-121.96,26.98-27.86,52.46-54.18,91.83-117.76,39.38-63.62,52.16-99.12,65.68-136.7,13.36-37.13,27.18-75.53,67.93-141.36,40.77-65.86,68.39-94.38,95.1-121.96,26.98-27.86,52.46-54.17,91.82-117.75,39.38-63.61,52.15-99.11,65.68-136.69,13.36-37.13,27.18-75.53,67.92-141.35,40.77-65.86,68.39-94.38,95.1-121.96,26.98-27.86,52.46-54.17,91.82-117.75,3.61-5.83,11.26-7.63,17.1-4.02,5.83,3.61,7.63,11.26,4.02,17.09-40.77,65.86-68.39,94.38-95.1,121.96-26.98,27.86-52.46,54.17-91.82,117.75-39.38,63.61-52.15,99.11-65.68,136.69-13.36,37.13-27.18,75.53-67.92,141.35-40.77,65.86-68.39,94.38-95.1,121.96-26.98,27.86-52.46,54.17-91.82,117.75-39.38,63.62-52.16,99.12-65.68,136.7-13.36,37.13-27.18,75.53-67.93,141.36-40.77,65.87-68.39,94.38-95.1,121.97-26.98,27.86-52.46,54.18-91.82,117.76-2.35,3.8-6.41,5.88-10.57,5.88h-.02Z"/>
                <path class="cls-29" d="M690.88,2918.36c-2.23,0-4.49-.6-6.52-1.86-5.83-3.61-7.63-11.27-4.02-17.1,40.77-65.86,68.39-94.38,95.1-121.96,26.98-27.86,52.46-54.18,91.82-117.76,39.38-63.62,52.16-99.12,65.68-136.7,13.36-37.13,27.18-75.53,67.93-141.36,40.77-65.86,68.39-94.38,95.1-121.96,26.98-27.86,52.46-54.17,91.82-117.75,39.38-63.61,52.15-99.11,65.68-136.69,13.36-37.13,27.18-75.53,67.93-141.35,40.77-65.86,68.39-94.38,95.1-121.96,26.98-27.86,52.46-54.17,91.82-117.75,3.61-5.83,11.26-7.64,17.1-4.02,5.83,3.61,7.63,11.26,4.02,17.09-40.77,65.86-68.39,94.37-95.09,121.95-26.98,27.86-52.46,54.17-91.82,117.75-39.38,63.61-52.15,99.11-65.68,136.69-13.36,37.13-27.18,75.53-67.92,141.35-40.77,65.86-68.39,94.38-95.1,121.96-26.98,27.86-52.46,54.17-91.82,117.75-39.38,63.62-52.16,99.12-65.68,136.7-13.36,37.13-27.18,75.53-67.93,141.36-40.77,65.86-68.39,94.38-95.1,121.96-26.98,27.86-52.46,54.18-91.82,117.76-2.35,3.8-6.41,5.88-10.57,5.88l-.03.02Z"/>
                <path class="cls-29" d="M805.15,2981.01c-2.23,0-4.49-.6-6.52-1.86-5.83-3.61-7.63-11.27-4.02-17.1,40.77-65.86,68.39-94.38,95.1-121.96,26.98-27.86,52.46-54.18,91.82-117.76,39.38-63.62,52.16-99.12,65.68-136.7,13.36-37.13,27.18-75.53,67.93-141.36,40.77-65.86,68.39-94.38,95.1-121.96,26.98-27.86,52.46-54.17,91.82-117.75,39.38-63.61,52.15-99.11,65.67-136.69,13.36-37.13,27.18-75.53,67.92-141.35,40.77-65.86,68.39-94.38,95.1-121.96,26.98-27.86,52.46-54.17,91.82-117.75,3.61-5.83,11.26-7.63,17.1-4.02,5.83,3.61,7.63,11.26,4.02,17.09-40.77,65.86-68.39,94.38-95.1,121.96-26.98,27.86-52.46,54.17-91.82,117.75-39.38,63.61-52.15,99.11-65.68,136.69-13.36,37.13-27.18,75.53-67.92,141.35-40.77,65.86-68.39,94.38-95.1,121.95-26.98,27.86-52.46,54.17-91.82,117.76-39.38,63.62-52.16,99.12-65.68,136.7-13.36,37.13-27.18,75.53-67.94,141.36-40.77,65.86-68.39,94.38-95.1,121.96-26.98,27.86-52.46,54.18-91.82,117.76-2.35,3.8-6.41,5.88-10.57,5.88h0Z"/>
                <path class="cls-29" d="M276.9,2787.72c-2.23,0-4.49-.6-6.52-1.86-5.83-3.61-7.63-11.27-4.02-17.1,40.77-65.86,68.39-94.38,95.1-121.96,26.98-27.86,52.46-54.18,91.82-117.76,39.38-63.62,52.16-99.12,65.68-136.7,13.36-37.13,27.18-75.53,67.93-141.36,40.77-65.86,68.39-94.38,95.1-121.96,26.98-27.86,52.46-54.17,91.82-117.75,39.38-63.61,52.15-99.11,65.67-136.69,13.36-37.13,27.18-75.53,67.93-141.35,40.77-65.86,68.39-94.38,95.1-121.96,26.98-27.86,52.46-54.17,91.82-117.75,3.61-5.83,11.26-7.63,17.1-4.02,5.83,3.61,7.63,11.26,4.02,17.09-40.77,65.86-68.39,94.38-95.1,121.96-26.98,27.86-52.46,54.17-91.82,117.75-39.38,63.61-52.15,99.11-65.67,136.69-13.36,37.13-27.18,75.53-67.93,141.35-40.77,65.86-68.39,94.38-95.1,121.96-26.98,27.86-52.46,54.17-91.82,117.76-39.38,63.62-52.16,99.12-65.68,136.7-13.36,37.13-27.18,75.53-67.93,141.36-40.77,65.86-68.39,94.38-95.1,121.96-26.98,27.86-52.46,54.18-91.82,117.76-2.35,3.8-6.41,5.88-10.57,5.88h0Z"/>
              </g>
            </g>
            <g>
              <rect class="cls-27" x="513.41" y="1907.76" width="925.1" height="130.8" rx="65.4" ry="65.4"/>
              <path class="cls-29" d="M1373.11,2059.01h-794.31c-47.34,0-85.86-38.52-85.86-85.86s38.52-85.86,85.86-85.86h794.31c47.34,0,85.86,38.52,85.86,85.86s-38.52,85.86-85.86,85.86ZM578.81,1928.22c-24.78,0-44.94,20.16-44.94,44.94s20.16,44.94,44.94,44.94h794.31c24.78,0,44.94-20.16,44.94-44.94s-20.16-44.94-44.94-44.94h-794.31Z"/>
            </g>
            <g class="cls-22">
              <path class="cls-20" d="M568.94,1984.85c0-24.78,20.16-44.94,44.94-44.94h789.36c-7.98-7.24-18.53-11.69-30.13-11.69h-794.31c-24.78,0-44.94,20.16-44.94,44.94s20.16,44.94,44.94,44.94h4.95c-9.07-8.23-14.81-20.07-14.81-33.25Z"/>
            </g>
            <g class="cls-11">
              <path class="cls-29" d="M235.29,1603.8s200.21,207.93,428.19,120.24l127.3,183-200.37-10.55-64.3,17.54s-295.2-135.26-290.82-310.23h0Z"/>
            </g>
            <g class="cls-11">
              <path class="cls-29" d="M926.54,1256.39s-61.19,254.19-61.08,378.18c.04,43.83-10.86,87.2-33.75,124.59-22.7,37.1-56.72,69.52-103.92,58.41l61.38,90.61h188.57s-69.2-355.63-3.2-528.56l-47.99-123.24h-.01Z"/>
            </g>
            <g class="cls-11">
              <path class="cls-29" d="M529.03,1162.86s58.46,298.13-70.15,268.9c0,0,160.76,102.3,160.76,96.45s-28.92-316.55-28.92-316.55l-61.68-48.81h0Z"/>
            </g>
            <g class="cls-11">
              <path class="cls-29" d="M1022.77,917.72c3.15-.38,32.38,215.91-154.69,215.91l114.23,239.55,116.68-271.7-76.22-183.76h0Z"/>
            </g>
            <g class="cls-11">
              <path class="cls-29" d="M1318.2,917.34c-1.29-5.7,23.38,806.7-350.74,859.31l22.94,128.98h190.43s251.36-482.65,137.37-988.3h0Z"/>
            </g>
            <g class="cls-11">
              <ellipse class="cls-20" cx="759.76" cy="1321.55" rx="60.18" ry="124.13" transform="translate(-42.04 25.08) rotate(-1.84)"/>
            </g>
            <g class="cls-11">
              <path class="cls-29" d="M1125.29,1922.8s-52.61,87.68-596.26,87.68l49.69,26.31h812.55l46.77-35.07v-64.3l-33.62-24.25-279.12,9.64h-.01Z"/>
            </g>
            <g class="cls-11">
              <path class="cls-29" d="M574.74,2094.59l306.8,19.3c130.08,8.18,197.33,160.41,114.59,261.11-63.71,77.55-168.02,151.03-338.78,182.24l61.66,46.57h537.8l40.23-39.49,105.91-375.55-35.07-140.3-789.17-11.69-3.98,57.81h0Z"/>
            </g>
          </g>
          <g>
            <path class="cls-21" d="M2272.53,2317.52l-140.46,8.66-191.07-8.66s-45.07,210.6-190.47,210.6h712.47c-145.4,0-190.47-210.6-190.47-210.6Z"/>
            <path class="cls-29" d="M2463,2548.47h-712.47c-11.24,0-20.36-9.11-20.36-20.36s9.11-20.36,20.36-20.36c127.11,0,170.15-192.58,170.57-194.52,2.1-9.71,10.98-16.57,20.82-16.06l189.98,8.6,139.37-8.59c10.1-.55,19.04,6.2,21.15,16.04h0c.42,1.94,43.45,194.52,170.57,194.52,11.24,0,20.36,9.11,20.36,20.36s-9.11,20.36-20.36,20.36h.01ZM1858.85,2507.76h495.83c-59.18-50.13-87.67-133.04-97.72-168.89l-123.63,7.62c-.72.04-1.45.05-2.17.02l-174.5-7.9c-9.98,35.7-38.47,118.9-97.8,169.16h-.01ZM2272.53,2317.52h.06-.06Z"/>
          </g>
          <g class="cls-22">
            <path class="cls-20" d="M1991.09,2340.16l-34.44-1.56c-9.98,35.7-38.47,118.9-97.8,169.16h34.9c58.53-49.58,87.01-131.13,97.35-167.6h-.01Z"/>
          </g>
          <g class="cls-22">
            <path class="cls-20" d="M2166.05,2346.51c.73.04,1.45.03,2.18-.02l89.35-5.51c-.2-.68-.43-1.46-.61-2.11l-109.93,6.78,19.02.86h-.01Z"/>
          </g>
          <rect class="cls-3" x="1267.79" y="1047.93" width="1675.03" height="1285.35" rx="109.7" ry="109.7"/>
          <g class="cls-22">
            <path class="cls-20" d="M1308.51,2293.82v-1136.63c0-41.07,33.29-74.36,74.36-74.36h1526.31c1.43,0,2.82.13,4.22.21-20.03-21.55-48.54-35.11-80.28-35.11h-1455.63c-60.59,0-109.7,49.11-109.7,109.7v1065.95c0,35.28,16.72,66.58,42.59,86.65-1.19-5.28-1.88-10.76-1.88-16.41h0Z"/>
          </g>
          <g class="cls-11">
            <path class="cls-29" d="M2873.03,1059.56s-127.95,1070.16-1587.79,1035.26l-17.45,29.08h1675.03v-986.36l-69.79-77.98h0Z"/>
          </g>
          <path class="cls-21" d="M1267.79,2123.9v99.68c0,60.59,49.11,109.7,109.7,109.7h1455.63c60.59,0,109.7-49.11,109.7-109.7v-99.68h-1675.03Z"/>
          <path class="cls-29" d="M2833.12,2353.63h-1455.62c-71.71,0-130.06-58.34-130.06-130.06v-1065.95c0-71.71,58.34-130.06,130.06-130.06h1455.62c71.71,0,130.06,58.34,130.06,130.06v1065.95c0,71.71-58.34,130.06-130.06,130.06h0ZM1377.5,1068.28c-49.26,0-89.35,40.08-89.35,89.35v1065.95c0,49.26,40.08,89.35,89.35,89.35h1455.62c49.26,0,89.35-40.08,89.35-89.35v-1065.95c0-49.26-40.08-89.35-89.35-89.35h-1455.62Z"/>
          <g>
            <path class="cls-16" d="M2818.81,1137.45h-1415.38c-21.91,0-39.68,17.55-39.68,39.19v838.27c0,21.65,17.77,39.19,39.68,39.19h1415.38c21.91,0,39.68-17.55,39.68-39.19v-838.27c0-21.65-17.77-39.19-39.68-39.19Z"/>
            <path class="cls-29" d="M2818.81,2068.65h-1415.37c-29.9,0-54.22-24.11-54.22-53.74v-838.27c0-29.63,24.32-53.74,54.22-53.74h1415.37c29.9,0,54.22,24.11,54.22,53.74v838.27c0,29.63-24.33,53.74-54.22,53.74ZM1403.44,1151.99c-13.86,0-25.14,11.06-25.14,24.66v838.27c0,13.59,11.28,24.66,25.14,24.66h1415.37c13.86,0,25.14-11.06,25.14-24.66v-838.27c0-13.6-11.28-24.66-25.14-24.66h-1415.37Z"/>
          </g>
          <g class="cls-18">
            <g>
              <rect class="cls-10" x="1796.26" y="1579.39" width="1511.99" height="245.44" transform="translate(-318.6 2783.51) rotate(-54.34)"/>
              <rect class="cls-9" x="1480.36" y="1593.82" width="1511.99" height="109.62" transform="translate(-406.88 2504.54) rotate(-54.34)"/>
              <rect class="cls-8" x="653.09" y="1402.5" width="1511.99" height="109.62" transform="translate(-596.42 1752.61) rotate(-54.34)"/>
            </g>
          </g>
          <g class="cls-11">
            <path class="cls-29" d="M1404.47,2049.81v-838.27c0-21.65,17.77-39.19,39.68-39.19h1414.09c-2.17-19.62-18.99-34.9-39.43-34.9h-1415.38c-21.91,0-39.68,17.55-39.68,39.19v838.27c0,21.65,17.77,39.19,39.68,39.19h1.28c-.16-1.41-.25-2.84-.25-4.3h0Z"/>
          </g>
          <polygon class="cls-29" points="2704.64 1700.29 2639.72 1677.96 2662.05 1742.88 2684.39 1807.79 2694.69 1775.51 2704.99 1743.23 2737.28 1732.92 2769.56 1722.62 2704.64 1700.29"/>
          <path class="cls-29" d="M2928.28,2144.26h-1640.13c-9.64,0-17.45-7.81-17.45-17.45s7.81-17.45,17.45-17.45h1640.13c9.64,0,17.45,7.81,17.45,17.45s-7.81,17.45-17.45,17.45Z"/>
          <g>
            <rect class="cls-14" x="1482.99" y="1218.43" width="1023.63" height="758.24" rx="43.45" ry="43.45"/>
            <path class="cls-21" d="M2506.62,1261.88c0-24-19.45-43.45-43.45-43.45h-936.73c-24,0-43.45,19.45-43.45,43.45v100.12h1023.63v-100.12h0Z"/>
            <g class="cls-22">
              <path class="cls-20" d="M1517.89,1933.22v-671.34c0-24,19.45-43.45,43.45-43.45h-34.9c-24,0-43.45,19.45-43.45,43.45v671.34c0,24,19.45,43.45,43.45,43.45h34.9c-24,0-43.45-19.45-43.45-43.45Z"/>
            </g>
            <path class="cls-29" d="M2463.17,1994.12h-936.73c-33.58,0-60.89-27.32-60.89-60.9v-671.34c0-33.58,27.32-60.9,60.89-60.9h936.73c33.58,0,60.89,27.32,60.89,60.9v671.34c0,33.58-27.32,60.9-60.89,60.9ZM1526.44,1235.87c-14.34,0-26,11.67-26,26v671.34c0,14.34,11.66,26,26,26h936.73c14.34,0,26-11.67,26-26v-671.34c0-14.34-11.66-26-26-26h-936.73Z"/>
            <path class="cls-29" d="M2501.2,1375.38h-1012.8c-8.03,0-14.54-6.51-14.54-14.54s6.51-14.54,14.54-14.54h1012.8c8.03,0,14.54,6.51,14.54,14.54s-6.51,14.54-14.54,14.54Z"/>
            <g>
              <path class="cls-12" d="M1732.13,1435.94h-150.69c-6.42,0-11.63-5.21-11.63-11.63s5.21-11.63,11.63-11.63h150.69c6.42,0,11.63,5.21,11.63,11.63s-5.21,11.63-11.63,11.63Z"/>
              <path class="cls-6" d="M1852.08,1435.94h-64.03c-6.42,0-11.63-5.21-11.63-11.63s5.21-11.63,11.63-11.63h64.03c6.42,0,11.63,5.21,11.63,11.63s-5.21,11.63-11.63,11.63Z"/>
              <path class="cls-17" d="M1705.04,1511.69h-124.57c-6.42,0-11.63-5.21-11.63-11.63s5.21-11.63,11.63-11.63h124.57c6.42,0,11.63,5.21,11.63,11.63s-5.21,11.63-11.63,11.63Z"/>
              <path class="cls-13" d="M1970.43,1511.69h-219.35c-6.42,0-11.63-5.21-11.63-11.63s5.21-11.63,11.63-11.63h219.35c6.42,0,11.63,5.21,11.63,11.63s-5.21,11.63-11.63,11.63Z"/>
              <path class="cls-12" d="M2130.2,1511.69h-108.32c-6.42,0-11.63-5.21-11.63-11.63s5.21-11.63,11.63-11.63h108.32c6.42,0,11.63,5.21,11.63,11.63s-5.21,11.63-11.63,11.63Z"/>
              <path class="cls-19" d="M1829.61,1582.1h-249.14c-6.42,0-11.63-5.21-11.63-11.63s5.21-11.63,11.63-11.63h249.14c6.42,0,11.63,5.21,11.63,11.63s-5.21,11.63-11.63,11.63Z"/>
              <path class="cls-6" d="M1949.17,1582.1h-62.28c-6.42,0-11.63-5.21-11.63-11.63s5.21-11.63,11.63-11.63h62.28c6.42,0,11.63,5.21,11.63,11.63s-5.21,11.63-11.63,11.63Z"/>
              <path class="cls-13" d="M1916.27,1647.09h-341.21c-6.42,0-11.63-5.21-11.63-11.63s5.21-11.63,11.63-11.63h341.21c6.42,0,11.63,5.21,11.63,11.63s-5.21,11.63-11.63,11.63Z"/>
              <path class="cls-17" d="M2051.67,1647.09h-89.36c-6.42,0-11.63-5.21-11.63-11.63s5.21-11.63,11.63-11.63h89.36c6.42,0,11.63,5.21,11.63,11.63s-5.21,11.63-11.63,11.63Z"/>
              <path class="cls-12" d="M1786.29,1712.08h-211.22c-6.42,0-11.63-5.21-11.63-11.63s5.21-11.63,11.63-11.63h211.22c6.42,0,11.63,5.21,11.63,11.63s-5.21,11.63-11.63,11.63Z"/>
              <path class="cls-6" d="M1986.68,1712.08h-154.36c-6.42,0-11.63-5.21-11.63-11.63s5.21-11.63,11.63-11.63h154.36c6.42,0,11.63,5.21,11.63,11.63s-5.21,11.63-11.63,11.63Z"/>
              <path class="cls-13" d="M1667.13,1777.24h-90.16c-6.42,0-11.63-5.21-11.63-11.63s5.21-11.63,11.63-11.63h90.16c6.42,0,11.63,5.21,11.63,11.63s-5.21,11.63-11.63,11.63Z"/>
              <path class="cls-17" d="M1853.99,1777.24h-147.03c-6.42,0-11.63-5.21-11.63-11.63s5.21-11.63,11.63-11.63h147.03c6.42,0,11.63,5.21,11.63,11.63s-5.21,11.63-11.63,11.63Z"/>
              <path class="cls-6" d="M1759.21,1847.49h-184.15c-6.42,0-11.63-5.21-11.63-11.63s5.21-11.63,11.63-11.63h184.15c6.42,0,11.63,5.21,11.63,11.63s-5.21,11.63-11.63,11.63Z"/>
              <path class="cls-19" d="M1902.73,1847.49h-102.91c-6.42,0-11.63-5.21-11.63-11.63s5.21-11.63,11.63-11.63h102.91c6.42,0,11.63,5.21,11.63,11.63s-5.21,11.63-11.63,11.63Z"/>
              <path class="cls-13" d="M1688.8,1912.48h-113.74c-6.42,0-11.63-5.21-11.63-11.63s5.21-11.63,11.63-11.63h113.74c6.42,0,11.63,5.21,11.63,11.63s-5.21,11.63-11.63,11.63Z"/>
              <path class="cls-12" d="M1783.58,1912.48h-54.16c-6.42,0-11.63-5.21-11.63-11.63s5.21-11.63,11.63-11.63h54.16c6.42,0,11.63,5.21,11.63,11.63s-5.21,11.63-11.63,11.63Z"/>
            </g>
            <g>
              <circle class="cls-6" cx="1578.95" cy="1289.3" r="26.17"/>
              <path class="cls-29" d="M1578.96,1321.29c-17.64,0-31.99-14.35-31.99-31.99s14.35-31.99,31.99-31.99,31.99,14.35,31.99,31.99-14.35,31.99-31.99,31.99ZM1578.96,1268.94c-11.22,0-20.36,9.13-20.36,20.36s9.13,20.36,20.36,20.36,20.36-9.13,20.36-20.36-9.13-20.36-20.36-20.36Z"/>
            </g>
            <g class="cls-11">
              <path class="cls-29" d="M1592.06,1266.77c.86,2.59,1.43,5.3,1.43,8.18,0,14.45-11.72,26.17-26.17,26.17-4.8,0-9.24-1.39-13.11-3.64,3.45,10.42,13.16,17.99,24.74,17.99,14.45,0,26.17-11.72,26.17-26.17,0-9.65-5.29-17.99-13.06-22.53Z"/>
            </g>
            <g class="cls-22">
              <path class="cls-20" d="M1564.41,1295.11c0-11.22,9.13-20.36,20.36-20.36,4.13,0,7.96,1.25,11.17,3.37-3.64-5.52-9.89-9.19-16.99-9.19-11.22,0-20.36,9.13-20.36,20.36,0,7.1,3.66,13.34,9.19,16.99-2.12-3.21-3.37-7.04-3.37-11.17h0Z"/>
            </g>
            <g>
              <circle class="cls-12" cx="1683.64" cy="1289.3" r="26.17"/>
              <path class="cls-29" d="M1683.64,1321.29c-17.64,0-31.99-14.35-31.99-31.99s14.35-31.99,31.99-31.99,31.99,14.35,31.99,31.99-14.35,31.99-31.99,31.99ZM1683.64,1268.94c-11.22,0-20.36,9.13-20.36,20.36s9.13,20.36,20.36,20.36,20.36-9.13,20.36-20.36-9.13-20.36-20.36-20.36Z"/>
            </g>
            <g class="cls-11">
              <path class="cls-29" d="M1696.75,1266.77c.86,2.59,1.43,5.3,1.43,8.18,0,14.45-11.72,26.17-26.17,26.17-4.8,0-9.24-1.39-13.11-3.64,3.45,10.42,13.16,17.99,24.74,17.99,14.45,0,26.17-11.72,26.17-26.17,0-9.65-5.29-17.99-13.06-22.53h0Z"/>
            </g>
            <g class="cls-22">
              <path class="cls-20" d="M1669.1,1295.11c0-11.22,9.13-20.36,20.36-20.36,4.13,0,7.96,1.25,11.17,3.37-3.64-5.52-9.89-9.19-16.99-9.19-11.22,0-20.36,9.13-20.36,20.36,0,7.1,3.66,13.34,9.19,16.99-2.12-3.21-3.37-7.04-3.37-11.17h0Z"/>
            </g>
            <g>
              <circle class="cls-13" cx="1788.33" cy="1289.3" r="26.17"/>
              <path class="cls-29" d="M1788.33,1321.29c-17.64,0-31.99-14.35-31.99-31.99s14.35-31.99,31.99-31.99,31.99,14.35,31.99,31.99-14.35,31.99-31.99,31.99ZM1788.33,1268.94c-11.22,0-20.36,9.13-20.36,20.36s9.13,20.36,20.36,20.36,20.36-9.13,20.36-20.36-9.13-20.36-20.36-20.36Z"/>
            </g>
            <g class="cls-11">
              <path class="cls-29" d="M1801.44,1266.77c.86,2.59,1.43,5.3,1.43,8.18,0,14.45-11.72,26.17-26.17,26.17-4.8,0-9.24-1.39-13.11-3.64,3.45,10.42,13.16,17.99,24.74,17.99,14.45,0,26.17-11.72,26.17-26.17,0-9.65-5.29-17.99-13.06-22.53h0Z"/>
            </g>
            <g class="cls-22">
              <path class="cls-20" d="M1773.79,1295.11c0-11.22,9.13-20.36,20.36-20.36,4.13,0,7.96,1.25,11.17,3.37-3.64-5.52-9.89-9.19-16.99-9.19-11.22,0-20.36,9.13-20.36,20.36,0,7.1,3.66,13.34,9.19,16.99-2.12-3.21-3.37-7.04-3.37-11.17h0Z"/>
            </g>
          </g>
          <g>
            <rect class="cls-21" x="1359.4" y="2472.87" width="1494.73" height="122.14" rx="58.88" ry="58.88"/>
            <path class="cls-29" d="M2795.25,2612.45h-1376.98c-42.09,0-76.32-34.24-76.32-76.32v-4.39c0-42.08,34.24-76.32,76.32-76.32h1376.98c42.08,0,76.32,34.24,76.32,76.32v4.39c0,42.08-34.24,76.32-76.32,76.32ZM1418.27,2490.32c-22.85,0-41.43,18.58-41.43,41.42v4.39c0,22.85,18.59,41.42,41.43,41.42h1376.98c22.84,0,41.43-18.58,41.43-41.42v-4.39c0-22.85-18.59-41.42-41.43-41.42h-1376.98Z"/>
          </g>
          <g class="cls-11">
            <path class="cls-29" d="M2795.25,2490.31h-295.17c22.84,0,41.43,18.58,41.43,41.43v4.38c0,22.84-18.58,41.43-41.43,41.43h295.17c22.84,0,41.43-18.58,41.43-41.43v-4.38c0-22.84-18.58-41.43-41.43-41.43Z"/>
          </g>
          <circle class="cls-29" cx="2111.12" cy="2228.59" r="46.53"/>
          <g class="cls-24">
            <path class="cls-20" d="M2104,2222.45c-5.66,7.49-14.17,10.6-19.01,6.95-4.84-3.66-4.17-12.69,1.49-20.19,5.66-7.49,14.17-10.6,19.01-6.95,4.84,3.66,4.17,12.69-1.49,20.19Z"/>
          </g>
          <g class="cls-11">
            <path class="cls-29" d="M2429.12,1217.96s100.76,795.43-905.42,760.54h962.56l21.58-28.45v-713.72l-44.84-16.83-33.88-1.54h0Z"/>
          </g>
          <g class="cls-11">
            <path class="cls-29" d="M2809.05,2126.08s-34.9,218.83-1488.91,166.49l34.37,38.81,20.88,4.81h1509.02l43.87-69.79,29.08-58.16-14.54-84.33s-130.96,2.18-133.77,2.18h0Z"/>
          </g>
          <g>
            <g>
              <path class="cls-28" d="M3056.16,2261.59h0l-34.81-154.16c-4.13-18.31-22.61-29.55-40.77-24.81l-204.88,53.48c-17.46,4.56-28.08,22.22-23.92,39.78l35.34,149.21c8.45,35.67,44.42,57.54,79.98,48.63l209.89-49.52c34.4-36.82-20.82-62.6-20.82-62.6h0Z"/>
              <path class="cls-29" d="M2850.96,2392.04c-14.8,0-29.44-4.06-42.5-12-18.9-11.49-32.12-29.68-37.21-51.2l-35.34-149.21c-6.15-25.96,9.85-52.56,35.66-59.3l204.88-53.48c13.1-3.41,26.68-1.43,38.24,5.61,11.56,7.03,19.57,18.18,22.55,31.38l33.19,146.98c10.74,6.46,29.33,20.39,33.35,41.17,2.01,10.35,1.05,26.27-14.9,43.33-2.19,2.35-5.04,4-8.17,4.74l-209.89,49.52c-6.57,1.65-13.24,2.47-19.87,2.47h.01ZM2988.99,2097.83c-1.43,0-2.88.19-4.31.56l-204.88,53.48c-8.82,2.3-14.28,11.39-12.18,20.25l35.34,149.2c3.07,12.98,11.04,23.94,22.43,30.87,11.4,6.93,24.79,8.98,37.73,5.72l204.89-48.34c3.14-4.22,4.41-8.02,3.77-11.35-1.75-9.25-15.97-18.74-22.58-21.89-4.51-2.15-7.85-6.27-8.95-11.15l-34.81-154.16c-1.02-4.51-3.75-8.31-7.7-10.71-2.69-1.64-5.7-2.48-8.76-2.48h.01ZM3076.97,2324.2h.06-.06Z"/>
            </g>
            <g class="cls-22">
              <path class="cls-20" d="M2845.55,2356.51c-11.4-6.93-19.36-17.89-22.43-30.86l-35.33-149.21c-2.1-8.86,3.37-17.94,12.18-20.25l201.57-52.62c-1.1-1.24-2.33-2.38-3.8-3.26-3.23-1.97-6.93-2.78-10.61-2.37-.82.09-1.64.24-2.45.45l-204.88,53.48c-8.81,2.31-14.28,11.39-12.18,20.25l35.33,149.21c3.08,12.97,11.04,23.93,22.43,30.86,7.87,4.78,16.69,7.17,25.65,7.16-1.87-.84-3.71-1.76-5.5-2.84h.02Z"/>
            </g>
            <g>
              <path class="cls-28" d="M3056.16,2261.59l-126.02,25.79c-17.18,3.52-30.04,18.09-30.94,35.61-.52,10.12-2.34,21.89-6.84,33.63-1.58,4.11-3.53,8.2-5.82,12.22l166.5-39.03c18.04-4.23,33.83-15.42,43.37-31.3,8.42-14.02,12.86-26.71,15.19-35.64,1.61-6.16-3.77-11.85-10.01-10.57l-45.43,9.3h0Z"/>
              <path class="cls-29" d="M2886.54,2385.14c-5.07,0-9.94-2.37-13.06-6.55-3.88-5.2-4.31-12.19-1.1-17.83,1.88-3.31,3.49-6.66,4.76-9.98,3.3-8.62,5.25-18.25,5.78-28.63,1.27-24.84,19.34-45.7,43.94-50.74l126.02-25.79h0l45.43-9.3c8.48-1.73,17.09.98,23.03,7.24,5.95,6.27,8.2,15.02,6.01,23.4-2.44,9.38-7.38,23.92-16.99,39.92-11.64,19.38-31.19,33.52-53.62,38.78l-166.5,39.03c-1.24.29-2.48.43-3.72.43l.02.02ZM3059.42,2277.56l-126.02,25.79c-10.04,2.05-17.42,10.47-17.93,20.47-.39,7.68-1.39,15.09-2.97,22.2l136.81-32.07c13.91-3.26,25.98-11.95,33.12-23.83,4.17-6.94,7.22-13.49,9.43-19.2l-32.45,6.64h0Z"/>
            </g>
            <g>
              <line class="cls-1" x1="2968.05" y1="2148.52" x2="2924.15" y2="2161.4"/>
              <path class="cls-29" d="M2924.14,2171.19c-4.23,0-8.13-2.76-9.38-7.03-1.52-5.18,1.45-10.61,6.63-12.13l43.91-12.88c5.19-1.53,10.62,1.45,12.13,6.63,1.52,5.18-1.45,10.61-6.63,12.13l-43.91,12.88c-.92.27-1.85.4-2.76.4h.01Z"/>
            </g>
            <g>
              <line class="cls-1" x1="2885.73" y1="2172.8" x2="2810.8" y2="2194.46"/>
              <path class="cls-29" d="M2810.79,2204.24c-4.24,0-8.15-2.78-9.39-7.06-1.5-5.19,1.49-10.61,6.68-12.11l74.93-21.66c5.19-1.5,10.61,1.5,12.11,6.68,1.5,5.19-1.49,10.61-6.68,12.11l-74.93,21.66c-.91.26-1.82.39-2.72.39h0Z"/>
            </g>
            <g>
              <line class="cls-1" x1="2984.09" y1="2193.87" x2="2909.15" y2="2215.53"/>
              <path class="cls-29" d="M2909.15,2225.31c-4.24,0-8.15-2.78-9.39-7.06-1.5-5.19,1.49-10.61,6.68-12.11l74.93-21.66c5.19-1.49,10.61,1.49,12.11,6.68s-1.49,10.61-6.68,12.11l-74.93,21.66c-.91.26-1.82.39-2.72.39h0Z"/>
            </g>
            <g>
              <line class="cls-1" x1="2875.84" y1="2227.96" x2="2844.81" y2="2236.75"/>
              <path class="cls-29" d="M2844.81,2246.53c-4.26,0-8.18-2.81-9.4-7.12-1.47-5.2,1.55-10.6,6.74-12.07l31.03-8.78c5.2-1.47,10.6,1.55,12.07,6.74,1.47,5.2-1.55,10.6-6.74,12.07l-31.03,8.78c-.89.25-1.79.37-2.67.37h0Z"/>
            </g>
            <g class="cls-11">
              <path class="cls-29" d="M3000.7,2098.98s16.57,208.04-169.87,241.88l-7.92,17.28,72.71,5.04,12.23-66.95s98.23-25.17,113.18-26.27c14.95-1.09,35.71-8.07,34.33-12.14-1.38-4.07-30.91-151.64-30.91-151.64l-23.76-7.2h0Z"/>
            </g>
            <g class="cls-11">
              <path class="cls-29" d="M3046.06,2271.02s-21.59,41.75-143.25,68.39l-10.72,27.94s188.67-50,188.96-47.25,26.2-59.16,26.2-59.16l-61.19,10.08Z"/>
            </g>
          </g>
          <g class="cls-26">
            <polygon class="cls-29" points="1919.19 2391.44 2320.5 2426.34 2279.79 2333.28 1934.22 2335.02 1919.19 2391.44"/>
          </g>
          <polygon class="cls-7" points="2896.53 759.51 945.26 2573.41 2741.29 2573.41 3276.4 1180.5 2896.53 759.51"/>
          <g>
            <g>
              <path class="cls-15" d="M1193.39,2422.04h77.68c71.22,0,129.04,57.82,129.04,129.04v43.93h-335.76v-43.93c0-71.22,57.82-129.04,129.04-129.04h0Z"/>
              <path class="cls-29" d="M1400.12,2615.46h-335.76c-11.3,0-20.46-9.16-20.46-20.46v-43.93c0-82.43,67.07-149.5,149.5-149.5h77.68c82.43,0,149.5,67.07,149.5,149.5v43.93c0,11.3-9.16,20.46-20.46,20.46h0ZM1084.81,2574.55h294.84v-23.47c0-59.87-48.71-108.58-108.58-108.58h-77.68c-59.87,0-108.58,48.71-108.58,108.58v23.47Z"/>
            </g>
            <g class="cls-23">
              <path class="cls-20" d="M1108.2,2562.77c0-59.87,48.71-108.58,108.58-108.58h77.68c12.89,0,25.21,2.38,36.69,6.52-17.22-11.48-37.87-18.21-60.07-18.21h-77.68c-59.87,0-108.58,48.71-108.58,108.58v23.47h23.38v-11.78Z"/>
            </g>
            <path class="cls-29" d="M1253.89,2434.3l-20.46,75.99-20.46-75.99c-3.04-11.3,3.65-22.93,14.95-25.97,11.3-3.04,22.92,3.65,25.97,14.95,1,3.71.92,7.55,0,11.02Z"/>
            <g class="cls-11">
              <path class="cls-29" d="M1347.43,2448.91s-11.69,105.22-274.75,105.22l-5.85,16h347.82l-67.23-121.22h.01Z"/>
            </g>
          </g>
          <g>
            <g>
              <path class="cls-15" d="M3314.67,2458.33c-3.56,0-7.09-.93-10.23-2.74l-46.47-26.83c-9.79-5.65-13.14-18.16-7.49-27.95l491.85-851.92c2.71-4.7,7.18-8.13,12.42-9.53,1.74-.47,3.52-.7,5.29-.7,3.56,0,7.09.93,10.23,2.74l46.47,26.83c9.79,5.65,13.14,18.16,7.49,27.95l-491.85,851.92c-2.71,4.7-7.18,8.13-12.42,9.53-1.74.46-3.52.7-5.29.7h0Z"/>
              <path class="cls-29" d="M3760.05,1559.12l46.47,26.83-491.85,851.92-46.47-26.83,491.85-851.92M3760.05,1518.2c-3.55,0-7.11.46-10.59,1.39-10.48,2.81-19.42,9.67-24.85,19.07l-491.85,851.92c-11.3,19.57-4.6,44.6,14.98,55.9l46.47,26.83c6.27,3.62,13.34,5.48,20.46,5.48,3.55,0,7.11-.46,10.59-1.39,10.48-2.81,19.42-9.67,24.85-19.07l491.85-851.92c11.3-19.57,4.59-44.6-14.98-55.9l-46.47-26.83c-6.27-3.62-13.34-5.48-20.46-5.48h0Z"/>
            </g>
            <g class="cls-22">
              <polygon class="cls-20" points="3285.73 2416.89 3775.74 1568.18 3760.05 1559.12 3268.2 2411.04 3314.67 2437.87 3316.52 2434.66 3285.73 2416.89"/>
            </g>
            <g>
              <path class="cls-15" d="M3805.96,1617.76c-1.52,0-3.05-.17-4.55-.51-5.29-1.21-9.88-4.47-12.77-9.06l-523.28-832.99c-6.01-9.57-3.13-22.2,6.44-28.21l45.44-28.55c3.29-2.07,7.06-3.13,10.88-3.13,1.52,0,3.05.17,4.55.51,5.29,1.21,9.88,4.47,12.77,9.06l523.28,832.99c6.01,9.57,3.13,22.2-6.44,28.21l-45.44,28.55c-3.29,2.07-7.06,3.13-10.88,3.13h0Z"/>
              <path class="cls-29" d="M3328.12,735.77l523.28,832.99-45.44,28.55-523.28-832.99,45.44-28.55M3328.12,694.85c-7.64,0-15.19,2.14-21.77,6.27l-45.44,28.55c-19.13,12.02-24.9,37.28-12.88,56.42l523.28,832.99c5.77,9.19,14.96,15.71,25.54,18.12,3.01.69,6.07,1.03,9.11,1.03,7.64,0,15.19-2.14,21.77-6.27l45.44-28.55c19.13-12.02,24.9-37.28,12.88-56.42l-523.28-832.99c-5.77-9.19-14.96-15.71-25.54-18.12-3.01-.69-6.07-1.03-9.11-1.03h0Z"/>
            </g>
            <g class="cls-22">
              <polygon class="cls-20" points="3306.06 764.31 3334.74 746.3 3328.12 735.77 3282.68 764.31 3805.96 1597.3 3822.73 1586.77 3306.06 764.31"/>
            </g>
            <g>
              <path class="cls-12" d="M3088.54,2521.59c-11.3,0-20.46-9.16-20.46-20.46v-12.52c0-57.24,46.57-103.81,103.81-103.81h301.12c57.24,0,103.81,46.57,103.81,103.81v12.52c0,11.3-9.16,20.46-20.46,20.46h-467.82Z"/>
              <path class="cls-29" d="M3473.01,2405.26c46.03,0,83.35,37.32,83.35,83.35v12.52h-467.81v-12.52c0-46.03,37.32-83.35,83.35-83.35h301.12M3473.01,2364.34h-301.12c-68.52,0-124.27,55.75-124.27,124.27v12.52c0,22.6,18.32,40.92,40.92,40.92h467.81c22.6,0,40.92-18.32,40.92-40.92v-12.52c0-68.52-55.75-124.27-124.27-124.27h.01Z"/>
            </g>
            <g class="cls-22">
              <path class="cls-20" d="M3111.93,2500.3c0-46.03,37.32-83.35,83.35-83.35h301.12c8.66,0,17.01,1.33,24.87,3.78-13.63-9.7-30.25-15.47-48.25-15.47h-301.12c-46.03,0-83.35,37.32-83.35,83.35v12.52h23.38v-.83h0Z"/>
            </g>
            <g>
              <path class="cls-27" d="M2952.92,2588.06c-11.3,0-20.46-9.16-20.46-20.46v-10.36c0-49.32,40.12-89.44,89.44-89.44h601.09c49.32,0,89.44,40.12,89.44,89.44v10.36c0,11.3-9.16,20.46-20.46,20.46h-739.06,0Z"/>
              <path class="cls-29" d="M3622.99,2488.26c38.1,0,68.98,30.89,68.98,68.99v10.37h-739.06v-10.37c0-38.1,30.88-68.99,68.98-68.99h601.09M3622.99,2447.34h-601.09c-60.6,0-109.91,49.3-109.91,109.91v10.37c0,22.6,18.32,40.92,40.92,40.92h739.06c22.6,0,40.92-18.32,40.92-40.92v-10.37c0-60.6-49.3-109.91-109.91-109.91h.01Z"/>
            </g>
            <g class="cls-22">
              <path class="cls-20" d="M3622.99,2488.26h-601.09c-38.1,0-68.98,30.89-68.98,68.98v10.37h29.3c.71-37.48,31.27-67.66,68.92-67.66h69.54c7.01,7.62,32.2,13.26,62.3,13.26s55.29-5.65,62.3-13.26h406.96c3.54,0,6.98.35,10.38.86-11.21-7.89-24.85-12.55-39.6-12.55h-.03Z"/>
            </g>
            <g>
              <path class="cls-27" d="M3771.37,1688.28c-80.6,0-146.16-65.57-146.16-146.16s65.57-146.16,146.16-146.16,146.16,65.57,146.16,146.16-65.57,146.16-146.16,146.16Z"/>
              <path class="cls-29" d="M3771.37,1416.41c69.42,0,125.7,56.28,125.7,125.7s-56.28,125.7-125.7,125.7-125.7-56.28-125.7-125.7,56.28-125.7,125.7-125.7M3771.37,1375.49c-91.88,0-166.63,74.75-166.63,166.62s74.75,166.63,166.63,166.63,166.62-74.75,166.62-166.63-74.75-166.62-166.62-166.62h0Z"/>
            </g>
            <g class="cls-11">
              <path class="cls-29" d="M3842.41,1438.44c12.2,19.37,19.36,42.23,19.36,66.82,0,69.42-56.28,125.7-125.7,125.7-26.37,0-50.83-8.16-71.04-22.04,22.25,35.33,61.5,58.89,106.34,58.89,69.42,0,125.7-56.28,125.7-125.7,0-43.05-21.67-81.01-54.66-103.67h0Z"/>
            </g>
            <g class="cls-22">
              <path class="cls-20" d="M3662.98,1557.87c0-69.42,56.28-125.7,125.7-125.7,28.37,0,54.45,9.51,75.48,25.36-22.99-25.2-55.99-41.12-92.79-41.12-69.42,0-125.7,56.28-125.7,125.7,0,41.06,19.77,77.41,50.22,100.35-20.38-22.34-32.91-51.97-32.91-84.59h0Z"/>
            </g>
            <g>
              <path class="cls-12" d="M3771.37,1607.32c-35.96,0-65.21-29.25-65.21-65.21s29.25-65.21,65.21-65.21,65.21,29.25,65.21,65.21-29.25,65.21-65.21,65.21Z"/>
              <path class="cls-29" d="M3771.37,1491.52c27.94,0,50.6,22.65,50.6,50.6s-22.65,50.6-50.6,50.6-50.6-22.65-50.6-50.6,22.65-50.6,50.6-50.6M3771.37,1462.29c-44.02,0-79.83,35.81-79.83,79.82s35.81,79.83,79.83,79.83,79.82-35.81,79.82-79.83-35.81-79.82-79.82-79.82h0Z"/>
            </g>
            <g class="cls-11">
              <path class="cls-29" d="M3738.31,1559.65c0-27.94,22.65-50.6,50.6-50.6,9.47,0,18.3,2.65,25.88,7.18-8.83-14.78-24.95-24.72-43.42-24.72-27.94,0-50.6,22.65-50.6,50.6,0,18.47,9.93,34.59,24.72,43.42-4.53-7.58-7.18-16.41-7.18-25.88Z"/>
            </g>
            <g>
              <path class="cls-2" d="M3362.56,833.08c-5.42-.29-10.5-2.73-14.12-6.77l-88.72-98.84c-7.55-8.41-6.85-21.34,1.56-28.89l87.73-78.75c14.37-12.9,32.92-20,52.22-20,22.18,0,43.4,9.46,58.21,25.96l11.59,12.92c13.95,15.54,21.01,35.59,19.89,56.44-1.13,20.85-10.3,40.02-25.85,53.98l-87.74,78.75c-3.76,3.38-8.63,5.23-13.67,5.23-.37,0-.73,0-1.1-.03h0Z"/>
              <path class="cls-29" d="M3401.21,620.29c15.82,0,31.58,6.47,42.98,19.17l11.59,12.91c21.3,23.73,19.33,60.23-4.39,81.53l-87.73,78.75-88.72-98.84,87.73-78.75c11.03-9.9,24.81-14.77,38.55-14.77M3401.21,579.37h0c-24.35,0-47.75,8.96-65.88,25.24l-87.73,78.75c-16.82,15.1-18.21,40.97-3.12,57.79l88.72,98.84c7.25,8.07,17.41,12.94,28.25,13.53.74.04,1.47.06,2.21.06,10.06,0,19.8-3.71,27.33-10.47l87.73-78.75c19.61-17.61,31.19-41.79,32.61-68.1,1.42-26.31-7.5-51.6-25.1-71.21l-11.58-12.91c-18.69-20.82-45.45-32.75-73.43-32.75h0v-.02Z"/>
            </g>
            <g class="cls-22">
              <path class="cls-20" d="M3368.51,646.75c23.73-21.3,60.23-19.33,81.53,4.4l11.59,12.91c2.06,2.3,3.84,4.74,5.47,7.26-2.45-6.79-6.19-13.24-11.31-18.95l-11.59-12.91c-21.3-23.73-57.8-25.7-81.53-4.4l-87.73,78.75,8.42,9.38,85.16-76.44h0Z"/>
            </g>
            <g>
              <path class="cls-27" d="M3338.9,944.41c-5.61,0-11.19-2.29-15.23-6.79l-187.34-208.69c-7.55-8.41-6.85-21.34,1.56-28.89l69.82-62.67c18.8-16.87,43.05-26.17,68.29-26.17,29.01,0,56.76,12.38,76.13,33.96l78.04,86.93c37.67,41.96,34.17,106.75-7.79,144.42l-69.82,62.67c-3.91,3.51-8.8,5.23-13.66,5.23h0Z"/>
              <path class="cls-29" d="M3276,631.66c22.42,0,44.75,9.16,60.91,27.16l78.04,86.93c30.18,33.62,27.39,85.35-6.23,115.53l-69.82,62.67-187.34-208.69,69.82-62.67c15.62-14.02,35.16-20.93,54.62-20.93M3276,590.74h0c-30.29,0-59.4,11.15-81.96,31.4l-69.82,62.67c-16.82,15.1-18.21,40.97-3.12,57.79l187.34,208.69c8.08,9,19.25,13.59,30.46,13.59,9.74,0,19.51-3.45,27.32-10.47l69.82-62.67c50.36-45.21,54.55-122.95,9.35-173.31l-78.04-86.93c-23.24-25.89-56.54-40.75-91.35-40.75h0Z"/>
            </g>
            <g class="cls-22">
              <path class="cls-20" d="M3221.38,675.97c33.62-30.18,85.34-27.39,115.52,6.23l78.04,86.93c11.21,12.49,17.85,27.47,20.07,42.92,3.32-23.15-3.23-47.54-20.07-66.3l-78.04-86.93c-30.18-33.62-81.9-36.41-115.52-6.23l-69.82,62.67,11.62,12.95,58.19-52.24h.01Z"/>
            </g>
            <g>
              <ellipse class="cls-12" cx="3093.44" cy="951.98" rx="66.14" ry="346.12" transform="translate(155.43 2309.82) rotate(-41.91)"/>
              <path class="cls-29" d="M3313.21,1230.63c-23.03,0-56.25-16.95-101.75-51.57-53.82-40.95-117.86-101.83-180.34-171.43-62.48-69.6-116.12-139.82-151.04-197.73-41.48-68.77-50.89-109.7-29.61-128.79,21.26-19.1,60.94-5.35,124.86,43.29,53.82,40.95,117.86,101.83,180.34,171.43h0c62.48,69.6,116.12,139.82,151.04,197.73,41.48,68.77,50.89,109.7,29.61,128.79-6.13,5.5-13.78,8.28-23.11,8.28ZM2874.35,707.72c-3.92,22.88,51.39,130,182.86,276.48,131.48,146.46,232.1,212.91,255.21,211.54,3.92-22.88-51.38-130.01-182.86-276.48-131.48-146.46-232.25-213.04-255.21-211.54Z"/>
            </g>
            <g class="cls-11">
              <ellipse class="cls-29" cx="3093.44" cy="951.98" rx="66.14" ry="346.12" transform="translate(155.43 2309.82) rotate(-41.91)"/>
            </g>
            <g>
              <path class="cls-27" d="M3330.7,1193.85c-12.49,0-24.2-6.69-30.55-17.45-39.41-66.76-104.76-152.67-179.3-235.7-79.62-88.7-161.98-165.81-225.96-211.55-8.85-6.33-14.27-16.17-14.87-27.01-.6-10.8,3.68-21.14,11.73-28.37l2.21-1.98c44.18-39.66,101.19-61.51,160.51-61.51,68.2,0,133.43,29.09,178.96,79.81l139.3,155.18c88.55,98.64,80.34,250.92-18.3,339.47-6.55,5.87-14.97,9.11-23.73,9.11h0Z"/>
              <path class="cls-29" d="M3054.47,630.74c60.27,0,120.3,24.63,163.73,73.02l139.3,155.18c81.14,90.39,73.65,229.44-16.74,310.58-2.91,2.62-6.51,3.87-10.06,3.87-5.08,0-10.09-2.57-12.93-7.39-38.79-65.72-102.85-151.15-181.7-238.97-83.76-93.31-166.6-169.71-229.28-214.53-7.87-5.63-8.57-17.04-1.37-23.51l2.2-1.98c42-37.71,94.52-56.27,146.84-56.27M3054.47,589.82c-64.38,0-126.24,23.7-174.18,66.74l-2.2,1.97c-12.7,11.4-19.44,27.71-18.5,44.73.95,17.06,9.47,32.56,23.39,42.51,62.82,44.92,143.96,120.94,222.63,208.58,73.68,82.07,138.16,166.79,176.91,232.44,10.01,16.97,28.47,27.51,48.17,27.51,13.81,0,27.09-5.09,37.39-14.34,107.03-96.09,115.94-261.34,19.86-368.37l-139.3-155.18c-49.41-55.04-120.18-86.6-194.18-86.6h.01Z"/>
            </g>
            <g class="cls-22">
              <path class="cls-20" d="M2917.11,718.22l2.2-1.98c90.39-81.14,229.44-73.64,310.58,16.75l139.3,155.18c14.06,15.66,25.39,32.8,34.16,50.83-9.16-28.77-24.37-56.13-45.85-80.06l-139.3-155.18c-81.14-90.39-220.19-97.88-310.58-16.75l-2.2,1.98c-7.2,6.47-6.51,17.88,1.37,23.51,3.05,2.18,6.19,4.5,9.34,6.83.34-.37.6-.77.98-1.11Z"/>
            </g>
            <g class="cls-11">
              <path class="cls-29" d="M3408.02,926.11s-78.92,172.45-491.04-204.6c0,0,379.97,374.12,409.2,485.19,0,0,175.37-128.6,81.84-280.59Z"/>
            </g>
            <g class="cls-11">
              <path class="cls-20" d="M3230.56,846.76l-34.48,30.02c-6.36,5.53-15.99,4.87-21.53-1.49l-93.98-107.96c-5.53-6.36-4.87-15.99,1.49-21.53l34.48-30.02c6.36-5.53,15.99-4.87,21.53,1.49l93.98,107.96c5.53,6.36,4.87,15.99-1.49,21.53Z"/>
            </g>
            <g class="cls-11">
              <path class="cls-29" d="M3229.73,660.13s181.22,175.37,222.14,146.14l-32.15,67.23s-21.23-1-19.38-.5-170.6-212.87-170.6-212.87h-.01Z"/>
            </g>
            <g class="cls-11">
              <path class="cls-29" d="M3364.18,630.9s87.69,75.99,116.91,40.92l-2.92,38-11.69,40.92h-17.54c-5.85,0-90.82-109.97-90.82-109.97l6.06-9.86h0Z"/>
            </g>
            <g class="cls-11">
              <polygon class="cls-29" points="3504.48 964.11 3498.63 1139.48 3432 1055.69 3410.95 905.65 3440.18 853.04 3504.48 964.11"/>
            </g>
            <g class="cls-11">
              <polygon class="cls-29" points="3650.62 1712.35 3714.92 1800.04 3761.69 1700.66 3674 1648.05 3650.62 1712.35"/>
            </g>
            <g class="cls-11">
              <path class="cls-29" d="M3492.79,2390.45s-58.46,58.46-403.35,52.61l-14.61,20.46h479.34l5.85-46.77-67.23-26.31h0Z"/>
            </g>
            <g class="cls-11">
              <path class="cls-29" d="M3545.4,2478.14s-23.38,81.84-602.1,81.84v26.31s745.32,5.85,751.17,0,23.38-35.07,23.38-35.07l-17.54-58.46-46.77-23.38-108.14,8.77h0Z"/>
            </g>
          </g>
        </g>
        <g>
          <path class="cls-4" d="M385.81,2583.36h3396.34c34.71,0,62.84,28.13,62.84,62.84h0c0,34.71-28.13,62.84-62.84,62.84H385.81c-34.71,0-62.84-28.13-62.84-62.84h0c0-34.71,28.13-62.84,62.84-62.84Z"/>
          <path class="cls-29" d="M3782.15,2729.5H385.81c-45.93,0-83.3-37.37-83.3-83.3s37.37-83.3,83.3-83.3h3396.33c45.93,0,83.3,37.37,83.3,83.3s-37.37,83.3-83.3,83.3h0ZM385.81,2603.82c-23.37,0-42.38,19.01-42.38,42.38s19.01,42.38,42.38,42.38h3396.33c23.37,0,42.38-19.01,42.38-42.38s-19.01-42.38-42.38-42.38H385.81Z"/>
        </g>
        <g class="cls-22">
          <path class="cls-20" d="M378.51,2663.74c0-23.37,19.01-42.38,42.38-42.38h3395.52c-7.71-10.6-20.18-17.54-34.26-17.54H385.81c-23.37,0-42.38,19.01-42.38,42.38s19.01,42.38,42.38,42.38h.81c-5.08-6.99-8.12-15.56-8.12-24.84h.01Z"/>
        </g>
        <g class="cls-11">
          <path class="cls-29" d="M2526.34,2575.85s-753.24,149.33-2164.44,113.49l21.81,21.81h3427.51l35.23-66.41-35.23-60.78s-1280.83-12.16-1284.88-8.11h0Z"/>
        </g>
      </g>
      <g>
        <circle class="cls-29" cx="363.17" cy="2349.22" r="32.37"/>
        <circle class="cls-29" cx="3782.92" cy="2233.8" r="37.33"/>
        <circle class="cls-29" cx="3806.41" cy="534.48" r="31.15" transform="translate(3009.02 4294.61) rotate(-86.02)"/>
        <path class="cls-29" d="M3676.77,283.58c7.2-7.2,2.65-24.29-10.07-43.66-3.78-5.76-3.78-13.18,0-18.94,12.72-19.37,17.26-36.46,10.07-43.66-7.2-7.2-24.29-2.65-43.66,10.07-5.76,3.78-13.18,3.78-18.94,0-19.37-12.72-36.46-17.26-43.66-10.07-7.2,7.2-2.65,24.29,10.07,43.66,3.78,5.76,3.78,13.18,0,18.94-12.72,19.37-17.26,36.46-10.07,43.66s24.29,2.65,43.66-10.07c5.76-3.78,13.18-3.78,18.94,0,19.37,12.72,36.46,17.26,43.66,10.07Z"/>
        <path class="cls-29" d="M222.04,2138.44c8.28,0,15.5-12.45,19.32-30.9,1.14-5.49,5.41-9.76,10.89-10.89,18.46-3.82,30.9-11.04,30.9-19.32s-12.45-15.5-30.9-19.32c-5.49-1.14-9.76-5.41-10.89-10.89-3.82-18.46-11.04-30.9-19.32-30.9s-15.5,12.45-19.32,30.9c-1.14,5.49-5.41,9.76-10.89,10.89-18.46,3.82-30.9,11.04-30.9,19.32s12.45,15.5,30.9,19.32c5.49,1.14,9.76,5.41,10.89,10.89,3.82,18.46,11.04,30.9,19.32,30.9Z"/>
        <circle class="cls-29" cx="588.26" cy="439.05" r="49.37"/>
        <circle class="cls-29" cx="354.25" cy="696.28" r="32.27"/>
      </g>
    </g>
  </g>
</svg>